<svg id="fashion" xmlns="http://www.w3.org/2000/svg" viewBox="0 0 18 17"><title>fashion</title><path d="M-3110.81,957.32c-.31-.26-2-1.5-2.31-1.76a1.89,1.89,0,0,0-1.15-.34h-10.07a1.94,1.94,0,0,0-1.16.34c-.31.26-2,1.5-2.31,1.76a1.25,1.25,0,0,0-.48,1.2c.08.56,2,13.13,2,13.13a1,1,0,0,0,.83.57h12.26a.94.94,0,0,0,.83-.57s1.94-12.57,2-13.13A1.25,1.25,0,0,0-3110.81,957.32Zm-8.5,8.8c-3.4,0-4.12-4.65-4.27-5.61h1.92c.29,1.4.94,3.79,2.35,3.79s2.07-2.39,2.36-3.79h1.92C-3115.18,961.47-3115.91,966.12-3119.31,966.12Zm-7.36-7.46,2.31-2.32h10.11l2.31,2.32Z" transform="translate(3128.31 -955.22)"/></svg>