<svg id="googleplus" xmlns="http://www.w3.org/2000/svg" viewBox="0 0 20 20"><title>googleplus</title><path d="M9.06,7.17C8.81,6.29,8.4,6,7.77,6a.64.64,0,0,0-.2,0A1,1,0,0,0,7,6.7a1.82,1.82,0,0,0,0,1.11c.19.73.71,1.26,1.23,1.26a.76.76,0,0,0,.21,0A1.5,1.5,0,0,0,9.06,7.17ZM10,0A10,10,0,1,0,20,10,10,10,0,0,0,10,0ZM9.42,14.29a3.66,3.66,0,0,1-1.56.34H7.72c-.4,0-2.44-.09-2.44-1.94s2.22-2,2.9-2h0a1.54,1.54,0,0,1-.31-1.06H7.74a2.27,2.27,0,0,1-1.18-.31,1.9,1.9,0,0,1-.78-1.69c0-2.22,2.43-2.31,2.45-2.31h2.42v0c0,.27-.48.32-.82.37a2.06,2.06,0,0,0-.4.07c.62.33.71.84.71,1.61a2.06,2.06,0,0,1-.7,1.66c-.22.2-.4.36-.4.57s.24.42.52.66a2.52,2.52,0,0,1,1.09,1.89A2.08,2.08,0,0,1,9.42,14.29Zm5.3-4.3H13.14v1.58h-1V10H10.56V9h1.58V7.41h1V9h1.58ZM8.15,11.2H8a2,2,0,0,0-1.2.48,1.2,1.2,0,0,0-.44,1c0,.74.84,1.18,1.8,1.11s1.59-.62,1.54-1.36A1.39,1.39,0,0,0,8.15,11.2Z" style="fill:#e17773"/></svg>