<svg id="login" xmlns="http://www.w3.org/2000/svg" viewBox="0 0 22 20"><title>login</title><path d="M-713.08,168.67c-2.89-1-3.81-1.84-3.81-3.65,0-1.08.88-.73,1.27-2.71.16-.82.94,0,1.09-1.89,0-.75-.43-.93-.43-.93s.22-1.11.3-2c.11-1.06-.64-3.81-4.65-3.81s-4.75,2.75-4.65,3.81c.09.85.3,2,.3,2s-.42.18-.42.93c.15,1.88.92,1.07,1.08,1.89.39,2,1.27,1.63,1.27,2.71,0,1.81-.92,2.65-3.8,3.65s-4.78,2-4.78,2.71v2.34h22v-2.34C-708.31,170.69-710.19,169.67-713.08,168.67Z" transform="translate(730.31 -153.72)"/></svg>