<svg id="photography" xmlns="http://www.w3.org/2000/svg" viewBox="0 0 20 17"><title>photography</title><path d="M-2319.31,761.6a3.1,3.1,0,0,0-3,3.19,3.09,3.09,0,0,0,3,3.18,3.09,3.09,0,0,0,3-3.18A3.1,3.1,0,0,0-2319.31,761.6Zm8-3.19h-2.4a.9.9,0,0,1-.79-.6l-.62-2a.9.9,0,0,0-.79-.61h-6.8a.91.91,0,0,0-.79.61l-.62,2a.89.89,0,0,1-.79.6h-2.4a2.08,2.08,0,0,0-2,2.13v9.56a2.07,2.07,0,0,0,2,2.12h16a2.07,2.07,0,0,0,2-2.12v-9.56A2.08,2.08,0,0,0-2311.31,758.41Zm-8,11.69a5.16,5.16,0,0,1-5-5.31,5.17,5.17,0,0,1,5-5.32,5.17,5.17,0,0,1,5,5.32A5.16,5.16,0,0,1-2319.31,770.1Zm7.3-8.08a.72.72,0,0,1-.7-.74.73.73,0,0,1,.7-.75.73.73,0,0,1,.7.75A.72.72,0,0,1-2312,762Z" transform="translate(2329.31 -755.22)"/></svg>