<svg id="settings" xmlns="http://www.w3.org/2000/svg" viewBox="0 0 18 18"><title>settings</title><path d="M-3112,763.72a3.06,3.06,0,0,1,1.73-2.61,9.11,9.11,0,0,0-.74-1.79,2.91,2.91,0,0,1-2.9-1,2.81,2.81,0,0,1-.74-2.91,9.76,9.76,0,0,0-1.79-.74,3.39,3.39,0,0,1-2.83,1.73,3.39,3.39,0,0,1-2.83-1.73,9.76,9.76,0,0,0-1.79.74,2.82,2.82,0,0,1-.73,2.91,2.93,2.93,0,0,1-2.91,1,9.76,9.76,0,0,0-.74,1.79,3.06,3.06,0,0,1,1.73,2.61,3.37,3.37,0,0,1-1.73,2.83,10.16,10.16,0,0,0,.74,1.8,2.79,2.79,0,0,1,2.91.73,2.81,2.81,0,0,1,.73,2.9,8.54,8.54,0,0,0,1.79.74,3.39,3.39,0,0,1,2.83-1.73,3.39,3.39,0,0,1,2.83,1.73,8.54,8.54,0,0,0,1.79-.74,2.8,2.8,0,0,1,.74-2.9,2.89,2.89,0,0,1,2.9-1,9.11,9.11,0,0,0,.74-1.79A3.06,3.06,0,0,1-3112,763.72Zm-7.27,3.92a3.91,3.91,0,0,1-3.91-3.92,3.91,3.91,0,0,1,3.91-3.91,3.92,3.92,0,0,1,3.92,3.91A3.92,3.92,0,0,1-3119.31,767.64Z" transform="translate(3128.31 -754.72)"/></svg>