<svg id="twitter" xmlns="http://www.w3.org/2000/svg" viewBox="0 0 20 20"><title>twitter</title><path d="M10,0A10,10,0,1,0,20,10,10,10,0,0,0,10,0Zm4.07,8.19v.26a5.56,5.56,0,0,1-5.6,5.6,5.65,5.65,0,0,1-3-.88l.47,0a4,4,0,0,0,2.45-.84A2,2,0,0,1,6.53,11a1.5,1.5,0,0,0,.37,0A2.25,2.25,0,0,0,7.42,11,2,2,0,0,1,5.84,9V9a1.91,1.91,0,0,0,.89.25,2,2,0,0,1-.61-2.63,5.58,5.58,0,0,0,4.06,2.06,1.73,1.73,0,0,1,0-.45,2,2,0,0,1,3.4-1.35,3.87,3.87,0,0,0,1.25-.48,1.91,1.91,0,0,1-.86,1.09,3.57,3.57,0,0,0,1.13-.31A4,4,0,0,1,14.07,8.19Z" style="fill:#55bce3"/></svg>