<?xml version="1.0" encoding="utf-8"?><svg xmlns="http://www.w3.org/2000/svg" xmlns:xlink="http://www.w3.org/1999/xlink"><symbol viewBox="0 0 20 10" id="arrow-right" xmlns="http://www.w3.org/2000/svg"><path d="M15.12 10V6.77H0V3.22h15.12V0L20 5l-4.88 5z"/></symbol><symbol viewBox="0 0 20 18" id="business" xmlns="http://www.w3.org/2000/svg"><path d="M18 3h-1v15h1a2 2 0 0 0 2-2V5a2 2 0 0 0-2-2zM0 5v11a2 2 0 0 0 2 2h1V3H2a2 2 0 0 0-2 2zM13.4.91A7.32 7.32 0 0 0 10 0a7.32 7.32 0 0 0-3.4.91V3H4.4v15h11.2V3h-2.2zM12.2 3H7.8V1.67A5.58 5.58 0 0 1 10 1.2a5.58 5.58 0 0 1 2.2.47z"/></symbol><symbol viewBox="0 0 13 13" id="calendar" xmlns="http://www.w3.org/2000/svg"><path d="M11.56 1.45h-.65v1.44H8.6V1.45H4.41v1.44H2.1V1.45h-.65A1.45 1.45 0 0 0 0 2.89v8.67A1.45 1.45 0 0 0 1.45 13h10.11A1.45 1.45 0 0 0 13 11.56V2.89a1.45 1.45 0 0 0-1.44-1.44zm0 10.11H1.45V5.78h10.11zM3.76 0h-1v2.46h1zm6.5 0h-1v2.46h1z"/></symbol><symbol viewBox="0 0 20 14" id="cinema" xmlns="http://www.w3.org/2000/svg"><path d="M20 2V.8a.81.81 0 0 0-.82-.8H.82A.81.81 0 0 0 0 .8V2h2v2H0v2h2v2H0v2h2v2H0v1.2a.81.81 0 0 0 .82.8h18.36a.8.8 0 0 0 .82-.8V12h-2v-2h2V8h-2V6h2V4h-2V2zM7.76 10V4l5.1 3z"/></symbol><symbol viewBox="0 0 15 15" id="close" xmlns="http://www.w3.org/2000/svg"><path d="M.17 14a.61.61 0 0 0 0 .85.59.59 0 0 0 .85 0l6.81-6.92a.62.62 0 0 0 0-.86L1 .18a.59.59 0 0 0-.85 0A.61.61 0 0 0 .17 1l6.21 6.5z"/><path d="M14.83 1a.61.61 0 0 0 0-.85.59.59 0 0 0-.85 0L7.17 7.07a.62.62 0 0 0 0 .86L14 14.82a.59.59 0 0 0 .85 0 .61.61 0 0 0 0-.85L8.62 7.5z"/></symbol><symbol viewBox="0 0 14 13" id="comment" xmlns="http://www.w3.org/2000/svg"><path d="M12.25 0H1.75A1.82 1.82 0 0 0 0 1.86v6.5a1.82 1.82 0 0 0 1.75 1.86h3.5L8.75 13v-2.78h3.5A1.82 1.82 0 0 0 14 8.36v-6.5A1.82 1.82 0 0 0 12.25 0z"/></symbol><symbol viewBox="0 0 20 20" id="facebook" xmlns="http://www.w3.org/2000/svg"><path d="M10 0a10 10 0 1 0 10 10A10 10 0 0 0 10 0zm2.37 6.91h-1.5c-.18 0-.38.23-.38.55v1.08h1.88v1.55h-1.88v4.65H8.71v-4.65h-1.6V8.54h1.6v-.91a2.24 2.24 0 0 1 2.16-2.37h1.5z" fill="#3360b2"/></symbol><symbol viewBox="0 0 18 17" id="fashion" xmlns="http://www.w3.org/2000/svg"><path d="M17.5 2.1c-.31-.26-2-1.5-2.31-1.76A1.89 1.89 0 0 0 14.04 0H3.97a1.94 1.94 0 0 0-1.16.34C2.5.6.81 1.84.5 2.1a1.25 1.25 0 0 0-.48 1.2c.08.56 2 13.13 2 13.13a1 1 0 0 0 .83.57h12.26a.94.94 0 0 0 .83-.57s1.94-12.57 2-13.13a1.25 1.25 0 0 0-.44-1.2zM9 10.9c-3.4 0-4.12-4.65-4.27-5.61h1.92c.29 1.4.94 3.79 2.35 3.79s2.07-2.39 2.36-3.79h1.92c-.15.96-.88 5.61-4.28 5.61zM1.64 3.44l2.31-2.32h10.11l2.31 2.32z"/></symbol><symbol viewBox="0 0 20 20" id="googleplus" xmlns="http://www.w3.org/2000/svg"><path d="M9.06 7.17C8.81 6.29 8.4 6 7.77 6a.64.64 0 0 0-.2 0 1 1 0 0 0-.57.7 1.82 1.82 0 0 0 0 1.11c.19.73.71 1.26 1.23 1.26a.76.76 0 0 0 .21 0 1.5 1.5 0 0 0 .62-1.9zM10 0a10 10 0 1 0 10 10A10 10 0 0 0 10 0zm-.58 14.29a3.66 3.66 0 0 1-1.56.34h-.14c-.4 0-2.44-.09-2.44-1.94s2.22-2 2.9-2a1.54 1.54 0 0 1-.31-1.06h-.13a2.27 2.27 0 0 1-1.18-.31 1.9 1.9 0 0 1-.78-1.69c0-2.22 2.43-2.31 2.45-2.31h2.42c0 .27-.48.32-.82.37a2.06 2.06 0 0 0-.4.07c.62.33.71.84.71 1.61a2.06 2.06 0 0 1-.7 1.66c-.22.2-.4.36-.4.57s.24.42.52.66a2.52 2.52 0 0 1 1.09 1.89 2.08 2.08 0 0 1-1.23 2.14zm5.3-4.3h-1.58v1.58h-1V10h-1.58V9h1.58V7.41h1V9h1.58zM8.15 11.2H8a2 2 0 0 0-1.2.48 1.2 1.2 0 0 0-.44 1c0 .74.84 1.18 1.8 1.11s1.59-.62 1.54-1.36a1.39 1.39 0 0 0-1.55-1.23z" fill="#e17773"/></symbol><symbol viewBox="0 0 20 16" id="graphic" xmlns="http://www.w3.org/2000/svg"><path d="M17.5 2.28A12.18 12.18 0 0 0 6.56.61 10.16 10.16 0 0 0 .02 8.75c-.28 3.91 2.67 7.26 7.87 7.25 5.61 0 7.71-2.78 7.76-3.62s-2.19-2.41-.75-4c1.8-2 3.4-.3 4.37-.54s1.46-3.34-1.77-5.56zM11 12.09a1.56 1.56 0 0 1-1.54-1.58A1.56 1.56 0 0 1 11 8.93a1.55 1.55 0 0 1 1.53 1.58A1.55 1.55 0 0 1 11 12.09z"/></symbol><symbol viewBox="0 0 22 20" id="login" xmlns="http://www.w3.org/2000/svg"><path d="M17.23 14.95c-2.89-1-3.81-1.84-3.81-3.65 0-1.08.88-.73 1.27-2.71.16-.82.94 0 1.09-1.89 0-.75-.43-.93-.43-.93s.22-1.11.3-2c.11-1.06-.64-3.81-4.65-3.81S6.25 2.71 6.35 3.77c.09.85.3 2 .3 2s-.42.18-.42.93c.15 1.88.92 1.07 1.08 1.89.39 2 1.27 1.63 1.27 2.71 0 1.81-.92 2.65-3.8 3.65S0 16.95 0 17.66V20h22v-2.34c0-.69-1.88-1.71-4.77-2.71z"/></symbol><symbol viewBox="0 0 18 16" id="logo" xmlns="http://www.w3.org/2000/svg"><path data-name="Rectangle 2 copy" d="M0-.087h18V16H0V-.087zM6.923-14h4.154V6.869H6.923V-14z" fill-rule="evenodd"/></symbol><symbol viewBox="0 0 14 18" id="music" xmlns="http://www.w3.org/2000/svg"><path d="M12 0H2a2 2 0 0 0-2 2v14a2 2 0 0 0 2 2h10a2 2 0 0 0 2-2V2a2 2 0 0 0-2-2zM9.8 9.52c-.24.37-.37.22-.3 0a1.89 1.89 0 0 0-1.39-2.49v5.25c0 1-.56 1.58-1.75 2s-2.45 0-2.75-.85.38-1.84 1.52-2.25a2.55 2.55 0 0 1 1.78 0V3.83h1.2c0 1.15 3.38 3.06 1.69 5.69z"/></symbol><symbol viewBox="0 0 9 17" id="next" xmlns="http://www.w3.org/2000/svg"><path d="M.19 15.84a.69.69 0 0 0 0 1 .66.66 0 0 0 .95 0L8.8 9.03a.7.7 0 0 0 0-1L1.14.21a.68.68 0 0 0-.95 0 .7.7 0 0 0 0 1l7 7.33z"/></symbol><symbol viewBox="0 0 20 17" id="photography" xmlns="http://www.w3.org/2000/svg"><path d="M10 6.38a3.1 3.1 0 0 0-3 3.19 3.09 3.09 0 0 0 3 3.18 3.09 3.09 0 0 0 3-3.18 3.1 3.1 0 0 0-3-3.19zm8-3.19h-2.4a.9.9 0 0 1-.79-.6l-.62-2a.9.9 0 0 0-.79-.61H6.6a.91.91 0 0 0-.79.61l-.62 2a.89.89 0 0 1-.79.6H2a2.08 2.08 0 0 0-2 2.13v9.56A2.07 2.07 0 0 0 2 17h16a2.07 2.07 0 0 0 2-2.12V5.32a2.08 2.08 0 0 0-2-2.13zm-8 11.69a5.16 5.16 0 0 1-5-5.31 5.17 5.17 0 0 1 5-5.32 5.17 5.17 0 0 1 5 5.32 5.16 5.16 0 0 1-5 5.31zm7.3-8.08a.72.72 0 0 1-.7-.74.73.73 0 0 1 .7-.75.73.73 0 0 1 .7.75.72.72 0 0 1-.69.72z"/></symbol><symbol viewBox="0 0 20 20" id="pinterest" xmlns="http://www.w3.org/2000/svg"><path d="M10 0a10 10 0 1 0 10 10A10 10 0 0 0 10 0zm.68 12.37a2.89 2.89 0 0 1-1.41-.67c-.27 1.45-.61 2.84-1.61 3.56-.31-2.19.45-3.83.8-5.58-.6-1 .08-3.06 1.35-2.55 1.56.62-1.36 3.77.6 4.17S13.3 7.74 12 6.45c-1.84-1.86-5.34 0-4.91 2.63.1.65.78.85.27 1.74-1.15-.26-1.5-1.18-1.45-2.42a4 4 0 0 1 3.56-3.63c2.21-.25 4.29.81 4.58 2.89.32 2.34-1 4.89-3.37 4.71z" fill="#ab281d"/></symbol><symbol viewBox="0 0 22 22" id="plus" xmlns="http://www.w3.org/2000/svg"><path d="M20.86 9.11h-8v-8c0-1-.85-1.14-1.9-1.14S9.07.06 9.07 1.11v8h-8c-1 0-1.14.85-1.14 1.89s.09 1.9 1.14 1.9h8v8c0 1 .84 1.13 1.89 1.13s1.9-.09 1.9-1.13v-8h8c1 0 1.14-.85 1.14-1.9s-.09-1.89-1.14-1.89z"/></symbol><symbol viewBox="0 0 9 17" id="prev" xmlns="http://www.w3.org/2000/svg"><path d="M.19 15.84a.69.69 0 0 0 0 1 .66.66 0 0 0 .95 0L8.8 9.03a.7.7 0 0 0 0-1L1.14.21a.68.68 0 0 0-.95 0 .7.7 0 0 0 0 1l7 7.33z"/></symbol><symbol viewBox="0 0 20 20" id="search" xmlns="http://www.w3.org/2000/svg"><path d="M19.55 16.92l-4.78-4.78a7.83 7.83 0 0 0 1.13-4.07A8.25 8.25 0 0 0 7.83 0 7.84 7.84 0 0 0 0 7.83a8.25 8.25 0 0 0 8.07 8.07A7.81 7.81 0 0 0 12 14.84l4.81 4.81a1.21 1.21 0 0 0 1.71 0l1.19-1.2c.48-.45.29-1.06-.16-1.53zM2.41 7.83a5.42 5.42 0 0 1 5.42-5.42 5.84 5.84 0 0 1 5.66 5.66 5.41 5.41 0 0 1-5.42 5.42 5.84 5.84 0 0 1-5.66-5.66z"/></symbol><symbol viewBox="0 0 18 18" id="settings" xmlns="http://www.w3.org/2000/svg"><path d="M16.31 9a3.06 3.06 0 0 1 1.73-2.61 9.11 9.11 0 0 0-.74-1.79 2.91 2.91 0 0 1-2.9-1 2.81 2.81 0 0 1-.74-2.91 9.76 9.76 0 0 0-1.79-.74 3.39 3.39 0 0 1-2.83 1.73A3.39 3.39 0 0 1 6.21-.05a9.76 9.76 0 0 0-1.79.74 2.82 2.82 0 0 1-.73 2.91 2.93 2.93 0 0 1-2.91 1 9.76 9.76 0 0 0-.74 1.79A3.06 3.06 0 0 1 1.77 9a3.37 3.37 0 0 1-1.73 2.83 10.16 10.16 0 0 0 .74 1.8 2.79 2.79 0 0 1 2.91.73 2.81 2.81 0 0 1 .73 2.9 8.54 8.54 0 0 0 1.79.74 3.39 3.39 0 0 1 2.83-1.73A3.39 3.39 0 0 1 11.87 18a8.54 8.54 0 0 0 1.79-.74 2.8 2.8 0 0 1 .74-2.9 2.89 2.89 0 0 1 2.9-1 9.11 9.11 0 0 0 .74-1.79A3.06 3.06 0 0 1 16.31 9zm-7.27 3.92A3.91 3.91 0 0 1 5.13 9a3.91 3.91 0 0 1 3.91-3.91A3.92 3.92 0 0 1 12.96 9 3.92 3.92 0 0 1 9 12.92z"/></symbol><symbol viewBox="0 0 20 19" id="travel" xmlns="http://www.w3.org/2000/svg"><path d="M5.31 19h2l4.49-8.08h5.16s3 0 3-1.42-3-1.41-3-1.41H11.8L7.31 0h-2L7.8 8.09H4.21l-2.25-2h-2l1.6 3.43-1.6 3.44h2l2.25-2H7.8z"/></symbol><symbol viewBox="0 0 20 20" id="twitter" xmlns="http://www.w3.org/2000/svg"><path d="M10 0a10 10 0 1 0 10 10A10 10 0 0 0 10 0zm4.07 8.19v.26a5.56 5.56 0 0 1-5.6 5.6 5.65 5.65 0 0 1-3-.88h.47a4 4 0 0 0 2.45-.84A2 2 0 0 1 6.53 11a1.5 1.5 0 0 0 .37 0 2.25 2.25 0 0 0 .52 0 2 2 0 0 1-1.58-2 1.91 1.91 0 0 0 .89.25 2 2 0 0 1-.61-2.63 5.58 5.58 0 0 0 4.06 2.06 1.73 1.73 0 0 1 0-.45 2 2 0 0 1 3.4-1.35 3.87 3.87 0 0 0 1.25-.48 1.91 1.91 0 0 1-.86 1.09 3.57 3.57 0 0 0 1.13-.31 4 4 0 0 1-1.03 1.01z" fill="#55bce3"/></symbol></svg>